<?xml version="1.0" encoding="iso-8859-1"?>
<!-- Generator: Adobe Illustrator 19.0.0, SVG Export Plug-In . SVG Version: 6.00 Build 0)  -->
<svg xmlns="http://www.w3.org/2000/svg" xmlns:xlink="http://www.w3.org/1999/xlink" version="1.1" id="Capa_1" x="0px" y="0px" viewBox="0 0 512 512" style="enable-background:new 0 0 512 512;" xml:space="preserve" width="512px" height="512px">
<g>
	<g>
		<path d="M469.333,76.8h-56.317l8.119-11.649c4.41,2.037,9.207,3.1,14.065,3.116c18.851,0,34.133-15.282,34.133-34.133    S454.051,0,435.2,0s-34.133,15.282-34.133,34.133c0.021,7.298,2.403,14.393,6.79,20.226L392.217,76.8H42.667    C19.114,76.828,0.028,95.914,0,119.467v281.6c0.028,23.553,19.114,42.639,42.667,42.667H179.2V460.8h-59.733    c-2.263-0.001-4.434,0.898-6.035,2.499c-1.6,1.6-2.499,3.771-2.499,6.035v34.133c-0.001,2.263,0.898,4.434,2.499,6.035    c1.6,1.6,3.771,2.499,6.035,2.499h273.067c2.263,0.001,4.434-0.898,6.035-2.499c1.6-1.6,2.499-3.771,2.499-6.035v-34.133    c0.001-2.263-0.898-4.434-2.499-6.035c-1.6-1.6-3.771-2.499-6.035-2.499H332.8v-17.067h136.533    c23.553-0.028,42.639-19.114,42.667-42.667v-281.6C511.972,95.914,492.886,76.828,469.333,76.8z M435.2,17.067    c9.426,0,17.067,7.641,17.067,17.067S444.626,51.2,435.2,51.2s-17.067-7.641-17.067-17.067    C418.144,24.712,425.779,17.077,435.2,17.067z M364.691,205.305l61.976-85.201v204.162H307.2v-34.726    c19.449-2.23,36.968-12.804,48.004-28.974C366.24,244.397,369.702,224.229,364.691,205.305z M384,477.867v17.067H128v-17.067H384z     M196.267,460.8v-17.067h119.467V460.8H196.267z M494.933,401.067c-0.015,14.132-11.468,25.585-25.6,25.6H42.667    c-14.132-0.015-25.585-11.468-25.6-25.6v-25.6h477.867V401.067z M494.933,358.4H17.067V119.467    c0.015-14.132,11.468-25.585,25.6-25.6h337.655l-67.591,96.982c-12.056-5.606-26.288-3.531-36.241,5.284l-56.828-39.341    c1.425-3.747,2.171-7.717,2.204-11.726c0-18.851-15.282-34.133-34.133-34.133S153.6,126.215,153.6,145.067    c0.033,4.008,0.78,7.979,2.204,11.726l-56.828,39.341c-13.196-11.421-32.83-11.232-45.803,0.443    c-12.972,11.674-15.224,31.18-5.252,45.503c9.972,14.323,29.047,18.98,44.497,10.865c15.451-8.115,22.442-26.463,16.31-42.803    l56.828-39.341c12.663,11.199,31.689,11.199,44.352,0l56.828,39.341c-1.425,3.747-2.171,7.717-2.204,11.726    c0,18.851,15.282,34.133,34.133,34.133s34.133-15.282,34.133-34.133c-0.021-7.298-2.403-14.393-6.79-20.226l75.112-107.774h23.525    L348.6,198.412c-1.566,2.21-1.967,5.042-1.075,7.6l-0.142,0.046c8.604,26.436-5.472,54.905-31.703,64.117    s-55.017-4.206-64.83-30.217c-0.128-0.262-0.271-0.517-0.427-0.763c-0.131-0.267-0.276-0.526-0.434-0.777    c-0.255-0.413-0.545-0.802-0.868-1.165c-0.179-0.197-0.381-0.364-0.577-0.544c-0.353-0.344-0.736-0.656-1.143-0.933l-0.058-0.047    l-54.75-37.942c-2.921-2.026-6.793-2.028-9.717-0.004l-55.125,38.146c-1.397,1.017-2.441,2.444-2.99,4.083l-0.144-0.054    c-7.524,19.89-26.552,33.064-47.817,33.108c-2.263-0.001-4.434,0.898-6.035,2.499c-1.6,1.6-2.499,3.771-2.499,6.035v51.2    c-0.001,2.263,0.898,4.434,2.499,6.035c1.6,1.6,3.771,2.499,6.035,2.499h358.4c2.263,0.001,4.434-0.898,6.035-2.499    c1.6-1.6,2.499-3.771,2.499-6.035V93.867h25.6c14.132,0.015,25.585,11.468,25.6,25.6V358.4z M315.733,221.867    c0,9.426-7.641,17.067-17.067,17.067s-17.067-7.641-17.067-17.067c0.011-9.421,7.645-17.056,17.067-17.067    C308.092,204.8,315.733,212.441,315.733,221.867z M204.8,145.067c0,9.426-7.641,17.067-17.067,17.067    c-9.421-0.011-17.056-7.646-17.067-17.067c0-9.426,7.641-17.067,17.067-17.067S204.8,135.641,204.8,145.067z M93.867,221.867    c0,9.426-7.641,17.067-17.067,17.067s-17.067-7.641-17.067-17.067S67.374,204.8,76.8,204.8    C86.221,204.811,93.856,212.445,93.867,221.867z M290.133,289.468v34.798h-93.867V221.093l39.913,27.661    C245.707,270.906,266.218,286.384,290.133,289.468z M179.2,221.084v103.183H85.333v-34.798    c23.945-3.088,44.477-18.599,53.99-40.79L179.2,221.084z" fill="#FFFFFF"/>
	</g>
</g>
<g>
</g>
<g>
</g>
<g>
</g>
<g>
</g>
<g>
</g>
<g>
</g>
<g>
</g>
<g>
</g>
<g>
</g>
<g>
</g>
<g>
</g>
<g>
</g>
<g>
</g>
<g>
</g>
<g>
</g>
</svg>
