<?xml version="1.0" encoding="iso-8859-1"?>
<!-- Generator: Adobe Illustrator 19.0.0, SVG Export Plug-In . SVG Version: 6.00 Build 0)  -->
<svg xmlns="http://www.w3.org/2000/svg" xmlns:xlink="http://www.w3.org/1999/xlink" version="1.1" id="Layer_1" x="0px" y="0px" viewBox="0 0 512 512" style="enable-background:new 0 0 512 512;" xml:space="preserve" width="512px" height="512px">
<g transform="translate(1 1)">
	<g>
		<g>
			<path d="M511,72.143c0-29.667-23.323-52.656-54.857-54.693v-0.164H154.429c-30.171,0-54.857,24.686-54.857,54.857v292.571H-1     v73.143c0,30.171,21.943,52.114,54.857,54.857h292.571c35.657,0,64-28.343,64-64V163.571H511V72.143z M17.286,437.857V383h82.286     h189.257h2.743v41.143c0,0,0,0.001,0,0.001v13.713c0,14.5,5.08,27.09,13.998,36.571H54.771     C32.829,472.6,17.286,457.971,17.286,437.857z M273.286,328.143c0-25.6,20.114-45.714,45.714-45.714     c25.6,0,45.714,20.114,45.714,45.714c0,12.605-4.883,23.873-12.89,32.072c-0.948,0.379-1.841,0.945-2.653,1.757     c-10.353,9.556-24.867,13.557-39.314,10.807v-8.064h-9.143h-9.143C279.686,356.486,273.286,342.771,273.286,328.143z      M309.857,391.577c3.004,0.39,6.071,0.566,9.143,0.566c9.851,0,19.138-2.172,27.429-6.055v33.483l-21.943-16.457     c-1.829-0.914-3.657-1.829-5.486-1.829c-1.829,0-3.657,0.914-5.486,1.829l-3.657,2.743V391.577z M392.143,428.714     c0,25.6-20.114,45.714-44.8,45.714c-21.943-1.829-37.486-16.457-37.486-36.571v-9.012l9.143-6.531l31.086,22.857     c1.829,0.914,3.657,1.829,5.486,1.829c1.829,0,2.743,0,3.657-0.914c3.657-1.829,5.486-4.571,5.486-8.229v-64.703     C376.05,361.64,383,345.791,383,328.143c0-35.657-28.343-64-64-64c-35.657,0-64,28.343-64,64     c0,13.143,3.929,25.929,11.339,36.571H117.857V72.143c0-20.114,16.457-36.571,36.571-36.571h252.217     c-1.19,1.255-2.319,2.561-3.378,3.92c-6.435,8.007-10.415,18.154-11.032,29.534c-0.005,0.087-0.014,0.172-0.018,0.259     c-0.047,0.945-0.074,1.897-0.074,2.858v91.429V428.714z M492.714,145.286h-82.286V72.143c0-0.732,0.021-1.454,0.06-2.165     c0.008-0.143,0.025-0.28,0.034-0.421c0.038-0.571,0.081-1.14,0.143-1.698c0.014-0.124,0.035-0.243,0.05-0.366     c0.07-0.57,0.147-1.137,0.242-1.693c0.018-0.107,0.042-0.211,0.061-0.318c0.102-0.564,0.212-1.123,0.34-1.672     c0.024-0.105,0.053-0.207,0.079-0.312c0.13-0.539,0.269-1.073,0.424-1.597c0.037-0.125,0.078-0.246,0.116-0.37     c0.15-0.489,0.308-0.974,0.478-1.45c0.06-0.166,0.124-0.329,0.186-0.493c0.156-0.414,0.317-0.825,0.488-1.228     c0.098-0.232,0.202-0.459,0.305-0.687c0.141-0.313,0.285-0.624,0.434-0.93c0.156-0.318,0.318-0.631,0.483-0.941     c0.1-0.19,0.202-0.379,0.306-0.566c0.236-0.422,0.478-0.84,0.732-1.248c0.029-0.047,0.058-0.095,0.088-0.142     c5.579-8.902,15.117-14.519,25.19-17.013c3.578-0.831,7.255-1.258,10.903-1.258c20.114,0,41.143,12.8,41.143,36.571V145.286z" fill="#FFFFFF"/>
			<path d="M163.571,127H255c5.486,0,9.143-3.657,9.143-9.143s-3.657-9.143-9.143-9.143h-91.429c-5.486,0-9.143,3.657-9.143,9.143     S158.086,127,163.571,127z" fill="#FFFFFF"/>
			<path d="M346.429,154.429H163.571c-5.486,0-9.143,3.657-9.143,9.143s3.657,9.143,9.143,9.143h182.857     c5.486,0,9.143-3.657,9.143-9.143S351.914,154.429,346.429,154.429z" fill="#FFFFFF"/>
			<path d="M319,200.143H163.571c-5.486,0-9.143,3.657-9.143,9.143s3.657,9.143,9.143,9.143H319c5.486,0,9.143-3.657,9.143-9.143     S324.486,200.143,319,200.143z" fill="#FFFFFF"/>
			<path d="M264.143,245.857H163.571c-5.486,0-9.143,3.657-9.143,9.143c0,5.486,3.657,9.143,9.143,9.143h100.571     c5.486,0,9.143-3.657,9.143-9.143C273.286,249.514,269.629,245.857,264.143,245.857z" fill="#FFFFFF"/>
			<path d="M227.571,291.571h-64c-5.486,0-9.143,3.657-9.143,9.143s3.657,9.143,9.143,9.143h64c5.486,0,9.143-3.657,9.143-9.143     S233.057,291.571,227.571,291.571z" fill="#FFFFFF"/>
		</g>
	</g>
</g>
<g>
</g>
<g>
</g>
<g>
</g>
<g>
</g>
<g>
</g>
<g>
</g>
<g>
</g>
<g>
</g>
<g>
</g>
<g>
</g>
<g>
</g>
<g>
</g>
<g>
</g>
<g>
</g>
<g>
</g>
</svg>
